Coordinates
version=1
nRows=30
nColumns=19
inDegrees=yes

Units are S.I. units (second, meters, Newtons, ...)
If the header above contains a line with 'inDegrees', this indicates whether rotational values are in degrees (yes) or radians (no).

endheader
time	pelvis_tilt	pelvis_list	pelvis_rotation	pelvis_tx	pelvis_ty	pelvis_tz	hip_flexion_r	hip_adduction_r	hip_rotation_r	knee_angle_r	knee_angle_r_beta	ankle_angle_r	hip_flexion_l	hip_adduction_l	hip_rotation_l	knee_angle_l	knee_angle_l_beta	ankle_angle_l
     11.68666667	     -9.74213858	     -2.65328115	     -4.29094592	      2.34969400	      0.95131132	      0.98938560	     30.99827246	      7.11957820	     -8.68664425	     14.29983538	      0.24957921	     -6.87115396	    -14.30649727	      1.31684472	      0.59984446	     47.79527559	      0.83418493	    -22.15654214
     11.69333333	     -9.38780134	     -3.06005540	     -4.97609638	      2.34955401	      0.94778105	      0.99002246	     30.62561927	      7.76518742	     -8.92324135	     16.31951852	      0.28482933	     -5.17012201	    -13.46081090	      0.81285574	     -0.58886199	     51.76733039	      0.90351036	    -22.76902965
     11.70000000	     -8.80005111	     -3.53265998	     -5.60252855	      2.34928600	      0.94423277	      0.99069005	     30.03552526	      8.37426467	     -9.16730634	     18.83546516	      0.32874088	     -2.97847117	    -12.79164580	      0.11204149	     -1.84622148	     55.74180454	      0.97287802	    -23.32283645
     11.70666667	     -8.44616868	     -3.82987703	     -6.15728476	      2.34879600	      0.94011112	      0.99132785	     29.79690963	      8.73430450	     -9.32526884	     21.86777398	      0.38166466	     -0.37388168	    -11.72503463	     -0.49958020	     -2.90769926	     59.78791531	      1.04349598	    -23.74729833
     11.71333333	     -7.90699145	     -4.15131031	     -6.58068316	      2.34818570	      0.93609580	      0.99187893	     29.26609282	      9.03950286	     -9.37564914	     24.97026913	      0.43581341	      2.45788551	    -10.78235748	     -1.22344806	     -3.82372040	     63.76751101	      1.11295302	    -23.88615342
     11.72000000	     -7.36504582	     -4.40840489	     -6.87260024	      2.34737356	      0.93207118	      0.99237453	     28.63744373	      9.24009672	     -9.27825031	     28.03364105	      0.48927934	      5.41715051	     -9.71660987	     -1.95901819	     -4.52012998	     67.70681234	      1.18170680	    -23.63111713
     11.72666667	     -6.57937275	     -4.81313475	     -6.98805783	      2.34650041	      0.92848077	      0.99278028	     27.53732183	      9.52421704	     -9.16043366	     30.80459245	      0.53764156	      8.36164776	     -8.86503967	     -2.93359953	     -5.03773064	     71.48180603	      1.24759287	    -23.12138635
     11.73333333	     -6.04262014	     -5.00798874	     -7.01067656	      2.34523399	      0.92491648	      0.99305546	     26.61817258	      9.60524307	     -8.89009264	     33.38542807	      0.58268564	     11.12310637	     -7.53749149	     -3.68318956	     -5.21244679	     75.20471862	      1.31256995	    -21.97432368
     11.74000000	     -6.10474666	     -4.94776096	     -6.86244914	      2.34359857	      0.92111677	      0.99325230	     26.27887879	      9.43584015	     -8.61513834	     35.74756990	      0.62391279	     13.73811180	     -5.29090369	     -4.26852099	     -5.01719518	     78.89463102	      1.37697107	    -20.54434676
     11.74666667	     -5.60751053	     -5.14515680	     -6.61032119	      2.34198984	      0.91854908	      0.99335472	     25.00141395	      9.47660804	     -8.38444465	     37.49077214	      0.65433741	     16.11331553	     -3.65540206	     -5.08745776	     -4.72702160	     82.22369286	      1.43507416	    -18.72245091
     11.75333333	     -5.69699468	     -5.14086336	     -6.22190276	      2.34006746	      0.91600764	      0.99331509	     24.24257597	      9.30143713	     -8.26844644	     38.90068964	      0.67894512	     18.18432229	     -1.11907738	     -5.71555268	     -4.08957713	     85.42980080	      1.49103130	    -16.78334682
     11.76000000	     -5.42511028	     -5.26047751	     -5.76982891	      2.33821900	      0.91461717	      0.99319398	     22.79739960	      9.22054190	     -8.20866012	     39.72903125	      0.69340240	     19.95476387	      1.04841792	     -6.40145923	     -3.36160084	     88.22801850	      1.53986942	    -14.57528037
     11.76666667	     -5.63006597	     -5.28648807	     -5.17380122	      2.33612839	      0.91343224	      0.99287571	     21.71489620	      9.02871803	     -8.32443492	     40.15864084	      0.70090051	     21.34854339	      3.95363310	     -6.90508335	     -2.28736760	     90.81440565	      1.58501039	    -12.44759675
     11.77333333	     -5.90487495	     -5.18980445	     -4.62827016	      2.33399895	      0.91288376	      0.99253930	     20.53496023	      8.74565137	     -8.36160663	     40.21622808	      0.70190559	     22.46873764	      6.98938663	     -7.13845675	     -1.18645103	     93.00293489	      1.62320743	    -10.36536785
     11.78000000	     -6.04765343	     -5.15558990	     -4.02954618	      2.33201700	      0.91320976	      0.99215844	     18.96286081	      8.53713704	     -8.46769335	     39.77196527	      0.69415174	     23.23199870	      9.88085233	     -7.32266350	     -0.01469747	     94.76222691	      1.65391287	     -8.37582347
     11.78666667	     -6.17374930	     -5.00140245	     -3.52496450	      2.33014725	      0.91416964	      0.99185894	     17.22170803	      8.26827907	     -8.45479367	     39.02271833	      0.68107492	     23.70107701	     12.69983365	     -7.26855409	      1.03454376	     96.07710738	      1.67686186	     -6.40657244
     11.79333333	     -6.50063978	     -4.79181658	     -3.02010658	      2.32842883	      0.91554287	      0.99159494	     15.52905548	      7.98354500	     -8.46484433	     37.90651482	      0.66159349	     23.78565261	     15.70906961	     -7.03117227	      2.10397011	     96.99306133	      1.69284827	     -4.80187439
     11.80000000	     -6.74875802	     -4.34362876	     -2.77575716	      2.32697362	      0.91762184	      0.99164288	     13.64886878	      7.56508309	     -8.08938348	     36.58985360	      0.63861342	     23.58243618	     18.42527670	     -6.50289241	      2.76352808	     97.38248445	      1.69964499	     -3.41411478
     11.80666667	     -7.07229861	     -4.03830704	     -2.30471241	      2.32567625	      0.91994373	      0.99160950	     11.73183992	      7.25521054	     -8.12405489	     34.99002366	      0.61069112	     22.92198738	     21.20875192	     -6.06794606	      3.59206576	     97.48944812	      1.70151186	     -1.95856786
     11.81333333	     -7.43982889	     -3.35333832	     -2.22173670	      2.32466944	      0.92280307	      0.99203558	      9.84987123	      6.66365134	     -7.60832808	     33.34697254	      0.58201447	     21.97898527	     23.75854418	     -5.26070457	      3.84082390	     97.06082793	      1.69403102	     -0.87637307
     11.82000000	     -7.60498215	     -2.90696635	     -1.87305899	      2.32414048	      0.92614294	      0.99234521	      7.57476340	      6.27963611	     -7.57975321	     31.31111261	      0.54648201	     20.52783208	     25.97185840	     -4.66380822	      4.25843807	     96.33174825	      1.68130618	      0.37663305
     11.82666667	     -7.55088354	     -2.20964453	     -1.71733768	      2.32395343	      0.93016136	      0.99295881	      5.05122696	      5.68527900	     -7.25728673	     29.19170927	      0.50949144	     18.70262009	     27.68296095	     -3.86545009	      4.27298961	     95.13832150	      1.66047695	      1.46180502
     11.83333333	     -7.68765498	     -1.39875496	     -1.63334173	      2.32405911	      0.93422760	      0.99369393	      2.77216084	      4.94857182	     -7.04784739	     27.06508628	      0.47237487	     16.51415880	     29.42863221	     -2.99659136	      4.06960193	     93.61786670	      1.63394001	      2.50141924
     11.84000000	     -8.37674940	     -0.39129250	     -1.68465473	      2.32412470	      0.93785527	      0.99453580	      1.32875144	      3.96454570	     -6.86817535	     25.29343767	      0.44145377	     14.03055723	     31.65304775	     -2.00522165	      3.58376469	     91.81991429	      1.60255982	      3.44782866
     11.84666667	     -8.01419300	      0.37005108	     -1.39647646	      2.32498361	      0.94285418	      0.99518004	     -1.59449210	      3.28833046	     -7.02261576	     22.76075365	      0.39725009	     10.97895778	     32.49365639	     -1.12765951	      3.39096782	     89.65380995	      1.56475417	      4.43922260
     11.85333333	     -8.21652970	      1.30009768	     -1.23740061	      2.32580025	      0.94729465	      0.99581741	     -3.64676059	      2.38954449	     -7.25812100	     20.62681232	      0.36000579	      7.74697207	     33.82687310	     -0.16149674	      2.92640269	     87.23943641	      1.52261540	      5.33473839
     11.86000000	     -8.41608309	      2.18878216	     -1.02203991	      2.32681714	      0.95175887	      0.99631905	     -5.63520753	      1.53549796	     -7.65771732	     18.52921679	      0.32339584	      4.26987882	     35.00186383	      0.77832138	      2.46127483	     84.57008368	      1.47602641	      6.19108515
     11.86666667	     -9.04404291	      2.92374820	     -0.62488658	      2.32777818	      0.95567480	      0.99643025	     -7.01471112	      0.84813546	     -8.29931730	     16.63935009	      0.29041144	      0.65519931	     36.56971263	      1.68228857	      2.19260493	     81.72557525	      1.42638037	      6.77504330
     11.87333333	     -9.41333093	      3.61545128	     -0.23970882	      2.32898040	      0.95981158	      0.99646605	     -8.61439949	      0.21210766	     -8.98279299	     14.80060527	      0.25831929	     -3.03948370	     37.65129154	      2.52011207	      1.85909933	     78.59714786	      1.37177901	      7.36501141
     11.88000000	    -10.09717654	      4.11473041	      0.28267450	      2.33010999	      0.96342159	      0.99612167	     -9.71639520	     -0.22449746	     -9.81022013	     13.23013654	      0.23090944	     -6.66611113	     38.97138390	      3.27364039	      1.70256120	     75.29813199	      1.31420032	      7.66448299
